<?xml version="1.0" encoding="UTF-8" standalone="no"?>
<!-- Generator: Adobe Illustrator 16.0.0, SVG Export Plug-In . SVG Version: 6.00 Build 0)  -->

<svg
   xmlns:dc="http://purl.org/dc/elements/1.1/"
   xmlns:cc="http://creativecommons.org/ns#"
   xmlns:rdf="http://www.w3.org/1999/02/22-rdf-syntax-ns#"
   xmlns:svg="http://www.w3.org/2000/svg"
   xmlns="http://www.w3.org/2000/svg"
   xmlns:sodipodi="http://sodipodi.sourceforge.net/DTD/sodipodi-0.dtd"
   xmlns:inkscape="http://www.inkscape.org/namespaces/inkscape"
   version="1.1"
   id="Layer_1"
   x="0px"
   y="0px"
   width="295.52px"
   height="295.519px"
   viewBox="0 0 295.52 295.519"
   enable-background="new 0 0 295.52 295.519"
   xml:space="preserve"
   inkscape:version="0.91 r13725"
   sodipodi:docname="checkmark_circle.svg"><metadata
     id="metadata3505"><rdf:RDF><cc:Work
         rdf:about=""><dc:format>image/svg+xml</dc:format><dc:type
           rdf:resource="http://purl.org/dc/dcmitype/StillImage" /><dc:title></dc:title></cc:Work></rdf:RDF></metadata><defs
     id="defs3503" /><sodipodi:namedview
     pagecolor="#ffffff"
     bordercolor="#666666"
     borderopacity="1"
     objecttolerance="10"
     gridtolerance="10"
     guidetolerance="10"
     inkscape:pageopacity="0"
     inkscape:pageshadow="2"
     inkscape:window-width="1920"
     inkscape:window-height="1061"
     id="namedview3501"
     showgrid="false"
     inkscape:zoom="1.4838301"
     inkscape:cx="138.4498"
     inkscape:cy="87.995156"
     inkscape:window-x="0"
     inkscape:window-y="19"
     inkscape:window-maximized="0"
     inkscape:current-layer="Layer_1" /><path
     fill="#FFFFFF"
     d="M147.76,0C66.154,0,0,66.154,0,147.76c0,81.605,66.154,147.759,147.76,147.759s147.76-66.154,147.76-147.759  C295.52,66.154,229.365,0,147.76,0z M147.646,246.423c-54.687,0-99.021-44.334-99.021-99.021c0-54.688,44.334-99.02,99.021-99.02  c54.688,0,99.022,44.333,99.022,99.02C246.668,202.089,202.334,246.423,147.646,246.423z"
     id="path3499"
     style="fill:#b71c1c;fill-opacity:1" /><path
     style="opacity:0.98000004;fill:#b71c1c;fill-opacity:1;stroke:none;stroke-width:1;stroke-linecap:butt;stroke-linejoin:miter;stroke-miterlimit:4;stroke-dasharray:none;stroke-opacity:1"
     d="M 202.93677,82.312462 121.52569,163.99147 91.486569,134.05088 66.92881,158.68946 96.967926,188.63005 121.6065,213.1878 146.16426,188.54923 227.57535,106.87022 202.93677,82.312462 Z"
     id="rect4734"
     inkscape:connector-curvature="0" /></svg>