<?xml version="1.0" encoding="UTF-8" standalone="no"?>
<!-- Created with Inkscape (http://www.inkscape.org/) -->

<svg
   xmlns:dc="http://purl.org/dc/elements/1.1/"
   xmlns:cc="http://creativecommons.org/ns#"
   xmlns:rdf="http://www.w3.org/1999/02/22-rdf-syntax-ns#"
   xmlns:svg="http://www.w3.org/2000/svg"
   xmlns="http://www.w3.org/2000/svg"
   xmlns:sodipodi="http://sodipodi.sourceforge.net/DTD/sodipodi-0.dtd"
   xmlns:inkscape="http://www.inkscape.org/namespaces/inkscape"
   width="64"
   height="64"
   viewBox="0 0 64.000001 64.000001"
   id="svg2"
   version="1.1"
   inkscape:version="0.91 r13725"
   sodipodi:docname="portraitplaceholder.svg">
  <defs
     id="defs4" />
  <sodipodi:namedview
     id="base"
     pagecolor="#ffffff"
     bordercolor="#666666"
     borderopacity="1.0"
     inkscape:pageopacity="0.0"
     inkscape:pageshadow="2"
     inkscape:zoom="11.2"
     inkscape:cx="34.889518"
     inkscape:cy="28.802771"
     inkscape:document-units="px"
     inkscape:current-layer="layer1"
     showgrid="true"
     units="px"
     inkscape:window-width="2560"
     inkscape:window-height="1383"
     inkscape:window-x="0"
     inkscape:window-y="0"
     inkscape:window-maximized="1">
    <inkscape:grid
       type="xygrid"
       id="grid4136" />
  </sodipodi:namedview>
  <metadata
     id="metadata7">
    <rdf:RDF>
      <cc:Work
         rdf:about="">
        <dc:format>image/svg+xml</dc:format>
        <dc:type
           rdf:resource="http://purl.org/dc/dcmitype/StillImage" />
        <dc:title></dc:title>
      </cc:Work>
    </rdf:RDF>
  </metadata>
  <g
     inkscape:label="Ebene 1"
     inkscape:groupmode="layer"
     id="layer1"
     transform="translate(0,-988.36216)">
    <path
       style="fill:#000000;fill-opacity:0.5;stroke:none;stroke-opacity:1"
       d="M 32 0 A 32 32.000023 0 0 0 0 32 A 32 32.000023 0 0 0 32 64 A 32 32.000023 0 0 0 64 32 A 32 32.000023 0 0 0 32 0 z M 32.003906 2 A 30.003807 29.926048 0 0 1 62.007812 31.925781 A 30.003807 29.926048 0 0 1 53.980469 52.244141 L 53.980469 47.498047 C 53.980469 39.965187 47.915672 33.900391 40.382812 33.900391 L 39.359375 33.900391 C 42.895814 31.606953 45.029113 27.692966 45.03125 23.494141 C 45.031784 16.628059 39.435007 11.06189 32.53125 11.0625 C 25.628256 11.062962 20.032669 16.628818 20.033203 23.494141 C 20.037503 27.694832 22.17468 31.609216 25.714844 33.900391 L 24.382812 33.900391 C 16.849954 33.900391 10.785156 39.965187 10.785156 47.498047 L 10.785156 53.058594 A 30.003807 29.926048 0 0 1 2 31.925781 A 30.003807 29.926048 0 0 1 32.003906 2 z "
       transform="translate(0,988.36216)"
       id="path4140" />
  </g>
</svg>
