<?xml version="1.0" encoding="UTF-8" standalone="no"?>
<svg
   xmlns:dc="http://purl.org/dc/elements/1.1/"
   xmlns:cc="http://creativecommons.org/ns#"
   xmlns:rdf="http://www.w3.org/1999/02/22-rdf-syntax-ns#"
   xmlns:svg="http://www.w3.org/2000/svg"
   xmlns="http://www.w3.org/2000/svg"
   xmlns:xlink="http://www.w3.org/1999/xlink"
   xmlns:sodipodi="http://sodipodi.sourceforge.net/DTD/sodipodi-0.dtd"
   xmlns:inkscape="http://www.inkscape.org/namespaces/inkscape"
   version="1.1"
   width="48"
   height="64"
   id="svg91"
   sodipodi:docname="TickTag-Logo.svg"
   inkscape:version="0.92.0 r"
   inkscape:export-filename="/home/tomi/Dokumente/ticktag/frontend/src/public/img/TickTag-Logo-256p.png"
   inkscape:export-xdpi="384"
   inkscape:export-ydpi="384">
  <metadata
     id="metadata95">
    <rdf:RDF>
      <cc:Work
         rdf:about="">
        <dc:format>image/svg+xml</dc:format>
        <dc:type
           rdf:resource="http://purl.org/dc/dcmitype/StillImage" />
        <dc:title></dc:title>
      </cc:Work>
    </rdf:RDF>
  </metadata>
  <sodipodi:namedview
     pagecolor="#ffffff"
     bordercolor="#666666"
     borderopacity="1"
     objecttolerance="10"
     gridtolerance="10"
     guidetolerance="10"
     inkscape:pageopacity="0"
     inkscape:pageshadow="2"
     inkscape:window-width="1680"
     inkscape:window-height="993"
     id="namedview93"
     showgrid="false"
     inkscape:zoom="8.0000004"
     inkscape:cx="40.104451"
     inkscape:cy="17.396394"
     inkscape:window-x="0"
     inkscape:window-y="0"
     inkscape:window-maximized="1"
     inkscape:current-layer="g89" />
  <defs
     id="defs25">
    <linearGradient
       x1="8.98839"
       y1="4.3984599"
       x2="54.567959"
       y2="59.15789"
       gradientUnits="userSpaceOnUse"
       id="color-1"
       gradientTransform="translate(0,-16)">
      <stop
         offset="0.46"
         stop-color="#000000"
         stop-opacity="0.41"
         id="stop2" />
      <stop
         offset="1"
         stop-color="#000000"
         stop-opacity="0"
         id="stop4" />
    </linearGradient>
    <filter
       id="dropshadow-base">
      <feColorMatrix
         type="matrix"
         values="0 0 0 0 0  0 0 0 0 0  0 0 0 0 0  0 0 0 .8 0"
         id="feColorMatrix7" />
      <feOffset
         dx="0"
         dy="1"
         id="feOffset9" />
      <feGaussianBlur
         stdDeviation="1"
         id="feGaussianBlur11"
         result="result1" />
      <feComposite
         in="SourceGraphic"
         in2="result1"
         id="feComposite13" />
    </filter>
    <filter
       id="dropshadow-banner"
       x="-0.1"
       y="-0.1"
       width="1.2"
       height="1.3">
      <feColorMatrix
         type="matrix"
         values="0 0 0 0 0  0 0 0 0 0  0 0 0 0 0  0 0 0 .4 0"
         id="feColorMatrix16" />
      <feOffset
         dx="0"
         dy="1"
         id="feOffset18" />
      <feGaussianBlur
         stdDeviation="0.5"
         id="feGaussianBlur20"
         result="result1" />
      <feComposite
         in="SourceGraphic"
         in2="result1"
         id="feComposite22" />
    </filter>
    <linearGradient
       inkscape:collect="always"
       xlink:href="#linearGradient4892"
       id="linearGradient4894"
       x1="8.114109"
       y1="280.89069"
       x2="8.820426"
       y2="280.89069"
       gradientUnits="userSpaceOnUse"
       gradientTransform="matrix(3.6276234,0,0,2.8586619,-6.7194575,-809.63262)" />
    <linearGradient
       inkscape:collect="always"
       id="linearGradient4892">
      <stop
         style="stop-color:#cc4242;stop-opacity:1;"
         offset="0"
         id="stop4888" />
      <stop
         style="stop-color:#a82d2d;stop-opacity:1"
         offset="1"
         id="stop4890" />
    </linearGradient>
  </defs>
  <g
     stroke-width="none"
     stroke-linecap="none"
     stroke-linejoin="none"
     stroke-miterlimit="none"
     font-weight="none"
     font-size="none"
     text-anchor="none"
     style="font-family:none;mix-blend-mode:normal;fill:none;fill-rule:nonzero;stroke:none;stroke-dasharray:none;stroke-dashoffset:0"
     id="g89"
     transform="translate(0,16)">
    <path
       d="M 3,8 C 3,-3.59798 12.40202,-13 24,-13 35.59798,-13 45,-3.59798 45,8 45,19.59798 35.59798,29 24,29 12.40202,29 3,19.59798 3,8 Z"
       id="base 1 11"
       stroke-miterlimit="10"
       inkscape:connector-curvature="0"
       style="fill:#2da86b;stroke:none;stroke-width:1;stroke-linecap:butt;stroke-linejoin:miter;stroke-miterlimit:10" />
    <path
       d="m 8.98839,-2.50331 13.78422,-3.3711 c -0.09547,-0.51402 0.1132,-1.03854 0.53108,-1.33116 0.08784,-0.06151 0.18229,-0.11083 0.28097,-0.1472 v -3.66263 c 0,-0.32275 0.18505,-0.58284 0.41533,-0.58444 v -0.0017 c 0.09075,0 0.17456,0.04014 0.2429,0.10848 l 7.11889,7.11889 7.64983,1.87085 5.35191,5.35191 c 0.41567,1.64828 0.63647,3.37406 0.63647,5.15141 0,11.59798 -9.40202,21 -21,21 -2.73533,0 -5.34851,-0.52297 -7.74502,-1.47438 L 8.98839,20.25903 Z"
       stroke-miterlimit="10"
       id="path28"
       inkscape:connector-curvature="0"
       style="fill:url(#color-1);stroke:none;stroke-width:1;stroke-linecap:butt;stroke-linejoin:miter;stroke-miterlimit:10" />
    <path
       d="M 24,27.60154 8.98839,20.25903 V -2.50332 l 13.78422,-3.3711 c -0.09548,-0.51401 0.1132,-1.03854 0.53108,-1.33117 0.08783,-0.06151 0.18229,-0.11083 0.28097,-0.1472 v -3.66262 c 0,-0.32275 0.18505,-0.58285 0.41534,-0.58444 v -0.0017 c 0.23127,0 0.41746,0.26071 0.41746,0.58445 v 3.66377 c 0.09948,0.03645 0.19465,0.08604 0.28309,0.14798 0.4181,0.29277 0.62678,0.81768 0.53095,1.33194 l 13.78011,3.37009 V 20.25902 L 24,27.60153 V -6.17288 c 0,0 0,0 0,0 z M 24.83786,-6.1351 c 2e-5,-0.2299 -0.08815,-0.4504 -0.24513,-0.61297 -0.05271,-0.05459 -0.11172,-0.10114 -0.17527,-0.1389 V -6.759 c 0,0.3228 -0.18505,0.58285 -0.41534,0.58444 v 5e-4 l 0.82049,0.20066 c 0.0099,-0.05326 0.01506,-0.1074 0.01524,-0.16169 z M 23.4089,-6.74807 c -0.15698,0.16257 -0.24516,0.38307 -0.24513,0.61297 3e-4,0.05415 0.0055,0.10812 0.01552,0.16122 l 0.81413,-0.19911 c -0.22722,-0.00644 -0.40876,-0.2646 -0.40876,-0.58432 v -0.12997 c -0.06373,0.03782 -0.12292,0.08447 -0.17576,0.1392 z"
       id="rect4993 1 1"
       stroke-miterlimit="4"
       inkscape:connector-curvature="0"
       style="fill:none;stroke:#bc3232;stroke-width:0;stroke-linecap:round;stroke-linejoin:bevel;stroke-miterlimit:4;stroke-opacity:0" />
    <path
       d="M 24,27.60154 8.98839,20.25903 V -2.50332 l 13.78422,-3.3711 c -0.09548,-0.51401 0.1132,-1.03854 0.53108,-1.33117 0.08783,-0.06151 0.18229,-0.11083 0.28097,-0.1472 v -3.66262 c 0,-0.32275 0.18505,-0.58285 0.41534,-0.58444 v -0.0017 c 0.23127,0 0.41746,0.26071 0.41746,0.58445 v 3.66377 c 0.09948,0.03645 0.19465,0.08604 0.28309,0.14798 0.4181,0.29277 0.62678,0.81768 0.53095,1.33194 l 13.78011,3.37009 V 20.25902 L 24,27.60153 V -6.17288 c 0,0 0,0 0,0 z M 24.83786,-6.1351 c 2e-5,-0.2299 -0.08815,-0.4504 -0.24513,-0.61297 -0.05271,-0.05459 -0.11172,-0.10114 -0.17527,-0.1389 V -6.759 c 0,0.3228 -0.18505,0.58285 -0.41534,0.58444 v 5e-4 l 0.82049,0.20066 c 0.0099,-0.05326 0.01506,-0.1074 0.01524,-0.16169 z M 23.4089,-6.74807 c -0.15698,0.16257 -0.24516,0.38307 -0.24513,0.61297 3e-4,0.05415 0.0055,0.10812 0.01552,0.16122 l 0.81413,-0.19911 c -0.22722,-0.00644 -0.40876,-0.2646 -0.40876,-0.58432 v -0.12997 c -0.06373,0.03782 -0.12292,0.08447 -0.17576,0.1392 z"
       id="path31"
       stroke-miterlimit="4"
       inkscape:connector-curvature="0"
       style="fill:#a82d2d;stroke:#bc3232;stroke-width:0;stroke-linecap:round;stroke-linejoin:bevel;stroke-miterlimit:4;stroke-opacity:0" />
    <path
       d="M 3,8 C 3,-3.59798 12.40202,-13 24,-13 35.59798,-13 45,-3.59798 45,8 45,19.59798 35.59798,29 24,29 12.40202,29 3,19.59798 3,8 Z"
       id="base 1 9 1"
       stroke-miterlimit="10"
       inkscape:connector-curvature="0"
       style="fill:none;stroke:none;stroke-width:1;stroke-linecap:butt;stroke-linejoin:miter;stroke-miterlimit:10" />
    <path
       d="M 3,8 C 3,-3.59798 12.40202,-13 24,-13 35.59798,-13 45,-3.59798 45,8 45,19.59798 35.59798,29 24,29 12.40202,29 3,19.59798 3,8 Z"
       id="base 1 7 1"
       stroke-miterlimit="10"
       inkscape:connector-curvature="0"
       style="fill:none;stroke:none;stroke-width:1;stroke-linecap:butt;stroke-linejoin:miter;stroke-miterlimit:10" />
    <path
       d="M 3,8 C 3,-3.59798 12.40202,-13 24,-13 35.59798,-13 45,-3.59798 45,8 45,19.59798 35.59798,29 24,29 12.40202,29 3,19.59798 3,8 Z"
       id="base 1 5 1"
       stroke-miterlimit="10"
       inkscape:connector-curvature="0"
       style="fill:none;stroke:none;stroke-width:1;stroke-linecap:butt;stroke-linejoin:miter;stroke-miterlimit:10" />
    <path
       d="M 3,8 C 3,-3.59798 12.40202,-13 24,-13 35.59798,-13 45,-3.59798 45,8 45,19.59798 35.59798,29 24,29 12.40202,29 3,19.59798 3,8 Z"
       id="base 1 3 1"
       stroke-miterlimit="10"
       inkscape:connector-curvature="0"
       style="fill:none;stroke:none;stroke-width:1;stroke-linecap:butt;stroke-linejoin:miter;stroke-miterlimit:10" />
    <path
       d="M 3,8 C 3,-3.59798 12.40202,-13 24,-13 35.59798,-13 45,-3.59798 45,8 45,19.59798 35.59798,29 24,29 12.40202,29 3,19.59798 3,8 Z"
       id="base 1 1 1"
       stroke-miterlimit="10"
       inkscape:connector-curvature="0"
       style="fill:none;stroke:none;stroke-width:1;stroke-linecap:butt;stroke-linejoin:miter;stroke-miterlimit:10" />
    <g
       id="svg2 1 1"
       stroke-miterlimit="10"
       font-weight="normal"
       font-size="30"
       style="font-weight:normal;font-size:30px;font-family:sans-serif;text-anchor:middle;fill:#ffffff;stroke:none;stroke-width:1;stroke-linecap:butt;stroke-linejoin:miter;stroke-miterlimit:10">
      <g
         id="layer1 1 1">
        <g
           id="flowRoot4468 1 1" />
        <g
           id="flowRoot4468-1 1 1" />
      </g>
    </g>
    <rect
       x="3"
       y="-13"
       width="42"
       height="21"
       stroke-miterlimit="10"
       id="rect42"
       style="fill:none;stroke:none;stroke-width:1;stroke-linecap:butt;stroke-linejoin:miter;stroke-miterlimit:10" />
    <path
       d="M 3,8 V -13 H 45 V 8 Z"
       stroke-miterlimit="10"
       id="path44"
       inkscape:connector-curvature="0"
       style="fill:none;stroke:none;stroke-width:1;stroke-linecap:butt;stroke-linejoin:miter;stroke-miterlimit:10" />
    <path
       d="M 3,8 V -13 H 45 V 8 Z"
       stroke-miterlimit="10"
       id="path46"
       inkscape:connector-curvature="0"
       style="fill:none;stroke:none;stroke-width:1;stroke-linecap:butt;stroke-linejoin:miter;stroke-miterlimit:10" />
    <g
       id="svg8 1 1"
       stroke-miterlimit="10"
       font-weight="normal"
       font-size="14"
       style="font-weight:normal;font-size:14px;font-family:Roboto, sans-serif;text-anchor:start;fill:#000000;stroke:none;stroke-width:1;stroke-linecap:butt;stroke-linejoin:miter;stroke-miterlimit:10">
      <g
         id="g48" />
    </g>
    <rect
       x="3"
       y="-13"
       width="42"
       height="21"
       stroke-miterlimit="10"
       id="rect51"
       style="fill:none;stroke:none;stroke-width:1;stroke-linecap:butt;stroke-linejoin:miter;stroke-miterlimit:10" />
    <path
       d="M 3,8 V -13 H 45 V 8 Z"
       stroke-miterlimit="10"
       id="path53"
       inkscape:connector-curvature="0"
       style="fill:none;stroke:none;stroke-width:1;stroke-linecap:butt;stroke-linejoin:miter;stroke-miterlimit:10" />
    <path
       d="M 3,8 V -13 H 45 V 8 Z"
       stroke-miterlimit="10"
       id="path55"
       inkscape:connector-curvature="0"
       style="fill:none;stroke:none;stroke-width:1;stroke-linecap:butt;stroke-linejoin:miter;stroke-miterlimit:10" />
    <g
       id="svg8 2 1"
       stroke-miterlimit="10"
       font-weight="normal"
       font-size="14"
       style="font-weight:normal;font-size:14px;font-family:Roboto, sans-serif;text-anchor:start;fill:#000000;stroke:none;stroke-width:1;stroke-linecap:butt;stroke-linejoin:miter;stroke-miterlimit:10">
      <g
         id="g58">
        <g
           id="g4690 1 1" />
      </g>
    </g>
    <rect
       x="3"
       y="-13"
       width="42"
       height="21"
       stroke-miterlimit="10"
       id="rect61"
       style="fill:none;stroke:none;stroke-width:1;stroke-linecap:butt;stroke-linejoin:miter;stroke-miterlimit:10" />
    <path
       d="M 3,8 V -13 H 45 V 8 Z"
       stroke-miterlimit="10"
       id="path63"
       inkscape:connector-curvature="0"
       style="fill:none;stroke:none;stroke-width:1;stroke-linecap:butt;stroke-linejoin:miter;stroke-miterlimit:10" />
    <path
       d="M 3,8 V -13 H 45 V 8 Z"
       stroke-miterlimit="10"
       id="path65"
       inkscape:connector-curvature="0"
       style="fill:none;stroke:none;stroke-width:1;stroke-linecap:butt;stroke-linejoin:miter;stroke-miterlimit:10" />
    <g
       id="svg8 3 1"
       stroke-miterlimit="10"
       font-weight="normal"
       font-size="14"
       style="font-weight:normal;font-size:14px;font-family:Roboto, sans-serif;text-anchor:start;fill:#000000;stroke:none;stroke-width:1;stroke-linecap:butt;stroke-linejoin:miter;stroke-miterlimit:10">
      <g
         id="g69">
        <g
           id="g67" />
      </g>
    </g>
    <rect
       x="3"
       y="-13"
       width="42"
       height="21"
       stroke-miterlimit="10"
       id="rect72"
       style="fill:none;stroke:none;stroke-width:1;stroke-linecap:butt;stroke-linejoin:miter;stroke-miterlimit:10" />
    <path
       d="M 3,8 V -13 H 45 V 8 Z"
       stroke-miterlimit="10"
       id="path74"
       inkscape:connector-curvature="0"
       style="fill:none;stroke:none;stroke-width:1;stroke-linecap:butt;stroke-linejoin:miter;stroke-miterlimit:10" />
    <path
       d="M 3,8 V -13 H 45 V 8 Z"
       stroke-miterlimit="10"
       id="path76"
       inkscape:connector-curvature="0"
       style="fill:none;stroke:none;stroke-width:1;stroke-linecap:butt;stroke-linejoin:miter;stroke-miterlimit:10" />
    <g
       id="svg8 4 1"
       stroke-miterlimit="10"
       font-weight="normal"
       font-size="14"
       style="font-weight:normal;font-size:14px;font-family:Roboto, sans-serif;text-anchor:start;fill:#000000;stroke:none;stroke-width:1;stroke-linecap:butt;stroke-linejoin:miter;stroke-miterlimit:10">
      <g
         id="g80">
        <g
           id="g78" />
      </g>
    </g>
    <rect
       x="3"
       y="-13"
       width="42"
       height="21"
       stroke-miterlimit="10"
       id="rect83"
       style="fill:none;stroke:none;stroke-width:1;stroke-linecap:butt;stroke-linejoin:miter;stroke-miterlimit:10" />
    <path
       d="M 3,8 V -13 H 45 V 8 Z"
       stroke-miterlimit="10"
       id="path85"
       inkscape:connector-curvature="0"
       style="fill:none;stroke:none;stroke-width:1;stroke-linecap:butt;stroke-linejoin:miter;stroke-miterlimit:10" />
    <path
       d="M 3,8 V -13 H 45 V 8 Z"
       stroke-miterlimit="10"
       id="path87"
       inkscape:connector-curvature="0"
       style="fill:none;stroke:none;stroke-width:1;stroke-linecap:butt;stroke-linejoin:miter;stroke-miterlimit:10" />
    <path
       style="fill:url(#linearGradient4894);fill-opacity:1;stroke:none;stroke-width:0.08603073;stroke-opacity:1"
       d="m 24.007272,-7.4428998 c -0.258145,-0.00216 -0.510912,0.074854 -0.725176,0.2209383 -0.432145,0.2945982 -0.645588,0.8252125 -0.540005,1.3424405 l 0.437199,-0.09436 c -0.01406,-0.061729 -0.0068,-0.1296704 -0.0072,-0.1930047 0.04966,-0.4657541 0.354101,-0.8210573 0.82706,-0.8210565 0.472959,-3e-7 0.821196,0.3474903 0.852393,0.832105 -2.14e-4,0.063221 -0.0073,0.1262263 -0.02118,0.1878832 L 25.2315,-5.87342 c 0.10561,-0.5172429 -0.08825,-1.0537082 -0.520408,-1.3483154 -0.208226,-0.1419681 -0.452954,-0.2187911 -0.703824,-0.2209384 z"
       id="path4227"
       inkscape:connector-curvature="0"
       sodipodi:nodetypes="cccccccccccc" />
    <path
       style="fill:#c9c9c9;fill-opacity:1;stroke:none;stroke-width:0.08427531;stroke-opacity:1"
       d="m 23.996596,-11.598349 c -0.236594,0 -0.427065,0.259645 -0.427065,0.582068 v 4.2407733 c 0,0.3224796 0.193876,0.6026277 0.430469,0.6026277 z"
       id="rect4351"
       inkscape:connector-curvature="0"
       sodipodi:nodetypes="csscc" />
    <path
       style="fill:#818181;fill-opacity:1;stroke:none;stroke-width:0.08427531;stroke-opacity:1"
       d="m 23.99442,-11.600045 c 0.236594,0 0.427066,0.259645 0.427066,0.582068 v 4.2407741 c 0,0.3224797 -0.191472,0.6042129 -0.428066,0.6042129 z"
       id="rect4351-9"
       inkscape:connector-curvature="0"
       sodipodi:nodetypes="csscc" />
    <text
       xml:space="preserve"
       style="font-style:normal;font-weight:normal;font-size:40px;line-height:0px;font-family:sans-serif;letter-spacing:0px;word-spacing:0px;fill:#000000;fill-opacity:1;stroke:none;stroke-width:1px;stroke-linecap:butt;stroke-linejoin:miter;stroke-opacity:1"
       x="11.844039"
       y="17.594408"
       id="text4592"><tspan
         sodipodi:role="line"
         id="tspan4590"
         x="11.844039"
         y="27.985033"
         style="font-style:italic;font-variant:normal;font-weight:bold;font-stretch:normal;font-size:32px;line-height:0px;font-family:'Liberation Sans';-inkscape-font-specification:'Liberation Sans Bold Italic'" /></text>
    <rect
       style="mix-blend-mode:normal;fill:#ffffff;fill-opacity:1;stroke:none;stroke-opacity:1"
       id="rect4610-3"
       width="11.313708"
       height="16.61701"
       x="11.343145"
       y="0.94149399" />
    <path
       style="fill:#cc4242;fill-opacity:1;stroke:#bc3232;stroke-width:1.33833718;stroke-linecap:round;stroke-linejoin:bevel;stroke-miterlimit:4;stroke-dasharray:none;stroke-opacity:0;paint-order:stroke markers fill"
       d="M 24.00212,-6.17456 8.98839,-2.50331 V 21.757762 L 24,27.60153 Z M 21.98839,2.79302 V 6.141865 L 17.761828,5.968611 v 9.269825 L 14.98839,14.008668 V 5.855709 l -3,-0.122759 V 3.201693 Z"
       id="rect4722"
       inkscape:connector-curvature="0"
       sodipodi:nodetypes="cccccccccccccc" />
    <rect
       style="fill:#ffffff;fill-opacity:1;stroke:none;stroke-opacity:1"
       id="rect4610"
       width="11.313708"
       height="16.61701"
       x="26.251339"
       y="1.7711849" />
    <path
       style="fill:#a82d2d;fill-opacity:1;stroke:#bc3232;stroke-width:1.33833718;stroke-linecap:round;stroke-linejoin:bevel;stroke-miterlimit:4;stroke-dasharray:none;stroke-opacity:0;paint-order:stroke markers fill"
       d="m 23.99342,-6.17299 15.01819,3.66966 V 20.25902 L 24,27.60153 Z M 26.011603,2.793 v 3.348845 l 4.226563,-0.173254 v 9.269825 l 2.77344,-1.229768 V 5.855689 l 3,-0.122759 V 3.201673 Z"
       id="rect4722-9"
       inkscape:connector-curvature="0"
       sodipodi:nodetypes="cccccccccccccc" />
    <text
       xml:space="preserve"
       style="font-style:normal;font-weight:normal;font-size:40px;line-height:25px;font-family:sans-serif;letter-spacing:0px;word-spacing:0px;fill:#000000;fill-opacity:1;stroke:none;stroke-width:1px;stroke-linecap:butt;stroke-linejoin:miter;stroke-opacity:1"
       x="8.0532999"
       y="39.759514"
       id="text93"><tspan
         sodipodi:role="line"
         id="tspan91"
         x="8.0532999"
         y="39.759514"
         style="font-style:normal;font-variant:normal;font-weight:normal;font-stretch:normal;font-size:8px;font-family:Ubuntu;-inkscape-font-specification:Ubuntu">TICKTAG</tspan></text>
    <path
       style="fill:none;fill-rule:evenodd;stroke:#000000;stroke-width:1px;stroke-linecap:butt;stroke-linejoin:miter;stroke-opacity:1"
       d="m 8.3749996,30.750001 29.7499984,-0.25"
       id="path95"
       inkscape:connector-type="polyline"
       inkscape:connector-curvature="0" />
  </g>
</svg>
