<?xml version="1.0" encoding="UTF-8" standalone="no"?>
<svg
   xmlns:dc="http://purl.org/dc/elements/1.1/"
   xmlns:cc="http://creativecommons.org/ns#"
   xmlns:rdf="http://www.w3.org/1999/02/22-rdf-syntax-ns#"
   xmlns:svg="http://www.w3.org/2000/svg"
   xmlns="http://www.w3.org/2000/svg"
   xmlns:xlink="http://www.w3.org/1999/xlink"
   xmlns:sodipodi="http://sodipodi.sourceforge.net/DTD/sodipodi-0.dtd"
   xmlns:inkscape="http://www.inkscape.org/namespaces/inkscape"
   version="1.1"
   width="48"
   height="48"
   id="svg91"
   sodipodi:docname="TickTag.svg"
   inkscape:version="0.92.0 r">
  <metadata
     id="metadata95">
    <rdf:RDF>
      <cc:Work
         rdf:about="">
        <dc:format>image/svg+xml</dc:format>
        <dc:type
           rdf:resource="http://purl.org/dc/dcmitype/StillImage" />
        <dc:title></dc:title>
      </cc:Work>
    </rdf:RDF>
  </metadata>
  <sodipodi:namedview
     pagecolor="#ffffff"
     bordercolor="#666666"
     borderopacity="1"
     objecttolerance="10"
     gridtolerance="10"
     guidetolerance="10"
     inkscape:pageopacity="0"
     inkscape:pageshadow="2"
     inkscape:window-width="1680"
     inkscape:window-height="993"
     id="namedview93"
     showgrid="false"
     inkscape:zoom="11.313709"
     inkscape:cx="5.6235404"
     inkscape:cy="22.137277"
     inkscape:window-x="0"
     inkscape:window-y="0"
     inkscape:window-maximized="1"
     inkscape:current-layer="g89" />
  <defs
     id="defs25">
    <linearGradient
       x1="8.98839"
       y1="4.39846"
       x2="54.56796"
       y2="59.15789"
       gradientUnits="userSpaceOnUse"
       id="color-1">
      <stop
         offset="0.46"
         stop-color="#000000"
         stop-opacity="0.41"
         id="stop2" />
      <stop
         offset="1"
         stop-color="#000000"
         stop-opacity="0"
         id="stop4" />
    </linearGradient>
    <filter
       id="dropshadow-base">
      <feColorMatrix
         type="matrix"
         values="0 0 0 0 0  0 0 0 0 0  0 0 0 0 0  0 0 0 .8 0"
         id="feColorMatrix7" />
      <feOffset
         dx="0"
         dy="1"
         id="feOffset9" />
      <feGaussianBlur
         stdDeviation="1"
         id="feGaussianBlur11"
         result="result1" />
      <feComposite
         in="SourceGraphic"
         in2="result1"
         id="feComposite13" />
    </filter>
    <filter
       id="dropshadow-banner"
       x="-10%"
       y="-10%"
       width="120%"
       height="130%">
      <feColorMatrix
         type="matrix"
         values="0 0 0 0 0  0 0 0 0 0  0 0 0 0 0  0 0 0 .4 0"
         id="feColorMatrix16" />
      <feOffset
         dx="0"
         dy="1"
         id="feOffset18" />
      <feGaussianBlur
         stdDeviation="0.5"
         id="feGaussianBlur20"
         result="result1" />
      <feComposite
         in="SourceGraphic"
         in2="result1"
         id="feComposite22" />
    </filter>
    <linearGradient
       inkscape:collect="always"
       xlink:href="#linearGradient4892"
       id="linearGradient4894"
       x1="8.114109"
       y1="280.89069"
       x2="8.820426"
       y2="280.89069"
       gradientUnits="userSpaceOnUse"
       gradientTransform="matrix(3.6276234,0,0,2.8586619,-6.7194575,-793.63262)" />
    <linearGradient
       inkscape:collect="always"
       id="linearGradient4892">
      <stop
         style="stop-color:#cc4242;stop-opacity:1;"
         offset="0"
         id="stop4888" />
      <stop
         style="stop-color:#a82d2d;stop-opacity:1"
         offset="1"
         id="stop4890" />
    </linearGradient>
  </defs>
  <g
     fill="none"
     fill-rule="nonzero"
     stroke="none"
     stroke-width="none"
     stroke-linecap="none"
     stroke-linejoin="none"
     stroke-miterlimit="none"
     stroke-dasharray=""
     stroke-dashoffset="0"
     font-family="none"
     font-weight="none"
     font-size="none"
     text-anchor="none"
     style="mix-blend-mode: normal"
     id="g89">
    <path
       d="M3,24c0,-11.59798 9.40202,-21 21,-21c11.59798,0 21,9.40202 21,21c0,11.59798 -9.40202,21 -21,21c-11.59798,0 -21,-9.40202 -21,-21z"
       id="base 1 11"
       fill="#2da86b"
       stroke="none"
       stroke-width="1"
       stroke-linecap="butt"
       stroke-linejoin="miter"
       stroke-miterlimit="10" />
    <path
       d="M8.98839,13.49669l13.78422,-3.3711c-0.09547,-0.51402 0.1132,-1.03854 0.53108,-1.33116c0.08784,-0.06151 0.18229,-0.11083 0.28097,-0.1472v-3.66263c0,-0.32275 0.18505,-0.58284 0.41533,-0.58444v-0.00171c0.09075,0 0.17456,0.04014 0.2429,0.10848l7.11889,7.11889l7.64983,1.87085l5.35191,5.35191c0.41567,1.64828 0.63647,3.37406 0.63647,5.15141c0,11.59798 -9.40202,21 -21,21c-2.73533,0 -5.34851,-0.52297 -7.74502,-1.47438l-7.26658,-7.26658z"
       stroke-miterlimit="10"
       id="path28"
       stroke-linejoin="miter"
       stroke-linecap="butt"
       stroke-width="1"
       stroke="none"
       fill="url(#color-1)" />
    <path
       d="M24,43.60154l-15.01161,-7.34251v-22.76235l13.78422,-3.3711c-0.09548,-0.51401 0.1132,-1.03854 0.53108,-1.33117c0.08783,-0.06151 0.18229,-0.11083 0.28097,-0.1472v-3.66262c0,-0.32275 0.18505,-0.58285 0.41534,-0.58444v-0.00171c0.23127,0 0.41746,0.26071 0.41746,0.58445l0,3.66377c0.09948,0.03645 0.19465,0.08604 0.28309,0.14798c0.4181,0.29277 0.62678,0.81768 0.53095,1.33194l13.78011,3.37009v22.76235l-15.01161,7.34251v-33.77441c0,0 0,0 0,0zM24.83786,9.8649c0.00002,-0.2299 -0.08815,-0.4504 -0.24513,-0.61297c-0.05271,-0.05459 -0.11172,-0.10114 -0.17527,-0.1389v0.12797c0,0.3228 -0.18505,0.58285 -0.41534,0.58444v0.0005l0.82049,0.20066c0.00995,-0.05326 0.01506,-0.1074 0.01524,-0.16169zM23.4089,9.25193c-0.15698,0.16257 -0.24516,0.38307 -0.24513,0.61297c0.0003,0.05415 0.0055,0.10812 0.01552,0.16122l0.81413,-0.19911c-0.22722,-0.00644 -0.40876,-0.2646 -0.40876,-0.58432v-0.12997c-0.06373,0.03782 -0.12292,0.08447 -0.17576,0.1392z"
       id="rect4993 1 1"
       fill="none"
       stroke-opacity="0"
       stroke="#bc3232"
       stroke-width="0"
       stroke-linecap="round"
       stroke-linejoin="bevel"
       stroke-miterlimit="4" />
    <path
       d="M24,43.60154l-15.01161,-7.34251v-22.76235l13.78422,-3.3711c-0.09548,-0.51401 0.1132,-1.03854 0.53108,-1.33117c0.08783,-0.06151 0.18229,-0.11083 0.28097,-0.1472v-3.66262c0,-0.32275 0.18505,-0.58285 0.41534,-0.58444v-0.00171c0.23127,0 0.41746,0.26071 0.41746,0.58445l0,3.66377c0.09948,0.03645 0.19465,0.08604 0.28309,0.14798c0.4181,0.29277 0.62678,0.81768 0.53095,1.33194l13.78011,3.37009v22.76235l-15.01161,7.34251v-33.77441c0,0 0,0 0,0zM24.83786,9.8649c0.00002,-0.2299 -0.08815,-0.4504 -0.24513,-0.61297c-0.05271,-0.05459 -0.11172,-0.10114 -0.17527,-0.1389v0.12797c0,0.3228 -0.18505,0.58285 -0.41534,0.58444v0.0005l0.82049,0.20066c0.00995,-0.05326 0.01506,-0.1074 0.01524,-0.16169zM23.4089,9.25193c-0.15698,0.16257 -0.24516,0.38307 -0.24513,0.61297c0.0003,0.05415 0.0055,0.10812 0.01552,0.16122l0.81413,-0.19911c-0.22722,-0.00644 -0.40876,-0.2646 -0.40876,-0.58432v-0.12997c-0.06373,0.03782 -0.12292,0.08447 -0.17576,0.1392z"
       id="path31"
       fill="#a82d2d"
       stroke-opacity="0"
       stroke="#bc3232"
       stroke-width="0"
       stroke-linecap="round"
       stroke-linejoin="bevel"
       stroke-miterlimit="4" />
    <path
       d="M3,24c0,-11.59798 9.40202,-21 21,-21c11.59798,0 21,9.40202 21,21c0,11.59798 -9.40202,21 -21,21c-11.59798,0 -21,-9.40202 -21,-21z"
       id="base 1 9 1"
       fill="none"
       stroke="none"
       stroke-width="1"
       stroke-linecap="butt"
       stroke-linejoin="miter"
       stroke-miterlimit="10" />
    <path
       d="M3,24c0,-11.59798 9.40202,-21 21,-21c11.59798,0 21,9.40202 21,21c0,11.59798 -9.40202,21 -21,21c-11.59798,0 -21,-9.40202 -21,-21z"
       id="base 1 7 1"
       fill="none"
       stroke="none"
       stroke-width="1"
       stroke-linecap="butt"
       stroke-linejoin="miter"
       stroke-miterlimit="10" />
    <path
       d="M3,24c0,-11.59798 9.40202,-21 21,-21c11.59798,0 21,9.40202 21,21c0,11.59798 -9.40202,21 -21,21c-11.59798,0 -21,-9.40202 -21,-21z"
       id="base 1 5 1"
       fill="none"
       stroke="none"
       stroke-width="1"
       stroke-linecap="butt"
       stroke-linejoin="miter"
       stroke-miterlimit="10" />
    <path
       d="M3,24c0,-11.59798 9.40202,-21 21,-21c11.59798,0 21,9.40202 21,21c0,11.59798 -9.40202,21 -21,21c-11.59798,0 -21,-9.40202 -21,-21z"
       id="base 1 3 1"
       fill="none"
       stroke="none"
       stroke-width="1"
       stroke-linecap="butt"
       stroke-linejoin="miter"
       stroke-miterlimit="10" />
    <path
       d="M3,24c0,-11.59798 9.40202,-21 21,-21c11.59798,0 21,9.40202 21,21c0,11.59798 -9.40202,21 -21,21c-11.59798,0 -21,-9.40202 -21,-21z"
       id="base 1 1 1"
       fill="none"
       stroke="none"
       stroke-width="1"
       stroke-linecap="butt"
       stroke-linejoin="miter"
       stroke-miterlimit="10" />
    <g
       id="svg2 1 1"
       fill="#ffffff"
       stroke="none"
       stroke-width="1"
       stroke-linecap="butt"
       stroke-linejoin="miter"
       stroke-miterlimit="10"
       font-family="sans-serif"
       font-weight="normal"
       font-size="30"
       text-anchor="middle">
      <g
         id="layer1 1 1">
        <g
           id="flowRoot4468 1 1" />
        <g
           id="flowRoot4468-1 1 1" />
      </g>
    </g>
    <rect
       x="3"
       y="3"
       width="42"
       height="21"
       fill="none"
       stroke="none"
       stroke-width="1"
       stroke-linecap="butt"
       stroke-linejoin="miter"
       stroke-miterlimit="10"
       id="rect42" />
    <path
       d="M3,24v-21h42v21z"
       fill="none"
       stroke="none"
       stroke-width="1"
       stroke-linecap="butt"
       stroke-linejoin="miter"
       stroke-miterlimit="10"
       id="path44" />
    <path
       d="M3,24v-21h42v21z"
       fill="none"
       stroke="none"
       stroke-width="1"
       stroke-linecap="butt"
       stroke-linejoin="miter"
       stroke-miterlimit="10"
       id="path46" />
    <g
       id="svg8 1 1"
       fill="#000000"
       stroke="none"
       stroke-width="1"
       stroke-linecap="butt"
       stroke-linejoin="miter"
       stroke-miterlimit="10"
       font-family="Roboto, sans-serif"
       font-weight="normal"
       font-size="14"
       text-anchor="start">
      <g
         id="g48" />
    </g>
    <rect
       x="3"
       y="3"
       width="42"
       height="21"
       fill="none"
       stroke="none"
       stroke-width="1"
       stroke-linecap="butt"
       stroke-linejoin="miter"
       stroke-miterlimit="10"
       id="rect51" />
    <path
       d="M3,24v-21h42v21z"
       fill="none"
       stroke="none"
       stroke-width="1"
       stroke-linecap="butt"
       stroke-linejoin="miter"
       stroke-miterlimit="10"
       id="path53" />
    <path
       d="M3,24v-21h42v21z"
       fill="none"
       stroke="none"
       stroke-width="1"
       stroke-linecap="butt"
       stroke-linejoin="miter"
       stroke-miterlimit="10"
       id="path55" />
    <g
       id="svg8 2 1"
       fill="#000000"
       stroke="none"
       stroke-width="1"
       stroke-linecap="butt"
       stroke-linejoin="miter"
       stroke-miterlimit="10"
       font-family="Roboto, sans-serif"
       font-weight="normal"
       font-size="14"
       text-anchor="start">
      <g
         id="g58">
        <g
           id="g4690 1 1" />
      </g>
    </g>
    <rect
       x="3"
       y="3"
       width="42"
       height="21"
       fill="none"
       stroke="none"
       stroke-width="1"
       stroke-linecap="butt"
       stroke-linejoin="miter"
       stroke-miterlimit="10"
       id="rect61" />
    <path
       d="M3,24v-21h42v21z"
       fill="none"
       stroke="none"
       stroke-width="1"
       stroke-linecap="butt"
       stroke-linejoin="miter"
       stroke-miterlimit="10"
       id="path63" />
    <path
       d="M3,24v-21h42v21z"
       fill="none"
       stroke="none"
       stroke-width="1"
       stroke-linecap="butt"
       stroke-linejoin="miter"
       stroke-miterlimit="10"
       id="path65" />
    <g
       id="svg8 3 1"
       fill="#000000"
       stroke="none"
       stroke-width="1"
       stroke-linecap="butt"
       stroke-linejoin="miter"
       stroke-miterlimit="10"
       font-family="Roboto, sans-serif"
       font-weight="normal"
       font-size="14"
       text-anchor="start">
      <g
         id="g69">
        <g
           id="g67" />
      </g>
    </g>
    <rect
       x="3"
       y="3"
       width="42"
       height="21"
       fill="none"
       stroke="none"
       stroke-width="1"
       stroke-linecap="butt"
       stroke-linejoin="miter"
       stroke-miterlimit="10"
       id="rect72" />
    <path
       d="M3,24v-21h42v21z"
       fill="none"
       stroke="none"
       stroke-width="1"
       stroke-linecap="butt"
       stroke-linejoin="miter"
       stroke-miterlimit="10"
       id="path74" />
    <path
       d="M3,24v-21h42v21z"
       fill="none"
       stroke="none"
       stroke-width="1"
       stroke-linecap="butt"
       stroke-linejoin="miter"
       stroke-miterlimit="10"
       id="path76" />
    <g
       id="svg8 4 1"
       fill="#000000"
       stroke="none"
       stroke-width="1"
       stroke-linecap="butt"
       stroke-linejoin="miter"
       stroke-miterlimit="10"
       font-family="Roboto, sans-serif"
       font-weight="normal"
       font-size="14"
       text-anchor="start">
      <g
         id="g80">
        <g
           id="g78" />
      </g>
    </g>
    <rect
       x="3"
       y="3"
       width="42"
       height="21"
       fill="none"
       stroke="none"
       stroke-width="1"
       stroke-linecap="butt"
       stroke-linejoin="miter"
       stroke-miterlimit="10"
       id="rect83" />
    <path
       d="M3,24v-21h42v21z"
       fill="none"
       stroke="none"
       stroke-width="1"
       stroke-linecap="butt"
       stroke-linejoin="miter"
       stroke-miterlimit="10"
       id="path85" />
    <path
       d="M3,24v-21h42v21z"
       fill="none"
       stroke="none"
       stroke-width="1"
       stroke-linecap="butt"
       stroke-linejoin="miter"
       stroke-miterlimit="10"
       id="path87" />
    <path
       style="fill:url(#linearGradient4894);fill-opacity:1;stroke:none;stroke-width:0.08603073;stroke-opacity:1"
       d="m 24.007272,8.5571002 c -0.258145,-0.00216 -0.510912,0.074854 -0.725176,0.2209383 -0.432145,0.2945982 -0.645588,0.8252125 -0.540005,1.3424405 l 0.437199,-0.09436 C 23.16523,9.96439 23.17249,9.8964486 23.17209,9.8331143 23.22175,9.3673602 23.526191,9.012057 23.99915,9.0120578 c 0.472959,-3e-7 0.821196,0.3474903 0.852393,0.832105 -2.14e-4,0.063221 -0.0073,0.1262263 -0.02118,0.1878832 L 25.2315,10.12658 C 25.33711,9.6093371 25.143255,9.0728718 24.711092,8.7782646 24.502866,8.6362965 24.258138,8.5594735 24.007268,8.5573262 Z"
       id="path4227"
       inkscape:connector-curvature="0"
       sodipodi:nodetypes="cccccccccccc" />
    <path
       style="fill:#c9c9c9;fill-opacity:1;stroke:none;stroke-width:0.08427531;stroke-opacity:1"
       d="m 23.996596,4.4016507 c -0.236594,0 -0.427065,0.2596449 -0.427065,0.582068 V 9.2244923 C 23.569531,9.5469719 23.763407,9.82712 24,9.82712 Z"
       id="rect4351"
       inkscape:connector-curvature="0"
       sodipodi:nodetypes="csscc" />
    <path
       style="fill:#818181;fill-opacity:1;stroke:none;stroke-width:0.08427531;stroke-opacity:1"
       d="m 23.99442,4.3999554 c 0.236594,0 0.427066,0.259645 0.427066,0.582068 v 4.2407737 c 0,0.3224797 -0.191472,0.6042129 -0.428066,0.6042129 z"
       id="rect4351-9"
       inkscape:connector-curvature="0"
       sodipodi:nodetypes="csscc" />
    <text
       xml:space="preserve"
       style="font-style:normal;font-weight:normal;font-size:40px;line-height:0px;font-family:sans-serif;letter-spacing:0px;word-spacing:0px;fill:#000000;fill-opacity:1;stroke:none;stroke-width:1px;stroke-linecap:butt;stroke-linejoin:miter;stroke-opacity:1"
       x="11.844039"
       y="17.594408"
       id="text4592"><tspan
         sodipodi:role="line"
         id="tspan4590"
         x="11.844039"
         y="27.985033"
         style="font-style:italic;font-variant:normal;font-weight:bold;font-stretch:normal;font-size:32px;line-height:0px;font-family:'Liberation Sans';-inkscape-font-specification:'Liberation Sans Bold Italic'" /></text>
    <rect
       style="mix-blend-mode:normal;fill:#ffffff;fill-opacity:1;stroke:none;stroke-opacity:1"
       id="rect4610-3"
       width="11.313708"
       height="16.61701"
       x="11.343145"
       y="16.941494" />
    <path
       style="fill:#cc4242;fill-opacity:1;stroke:#bc3232;stroke-width:1.33833718;stroke-linecap:round;stroke-linejoin:bevel;stroke-miterlimit:4;stroke-dasharray:none;stroke-opacity:0;paint-order:stroke markers fill"
       d="M 24.00212,9.82544 8.98839,13.49669 V 37.757762 L 24,43.60153 Z m -2.01373,8.96758 v 3.348845 l -4.226562,-0.173254 v 9.269825 L 14.98839,30.008668 v -8.152959 l -3,-0.122759 v -2.531257 z"
       id="rect4722"
       inkscape:connector-curvature="0"
       sodipodi:nodetypes="cccccccccccccc" />
    <rect
       style="fill:#ffffff;fill-opacity:1;stroke:none;stroke-opacity:1"
       id="rect4610"
       width="11.313708"
       height="16.61701"
       x="26.251339"
       y="17.771185" />
    <path
       style="fill:#a82d2d;fill-opacity:1;stroke:#bc3232;stroke-width:1.33833718;stroke-linecap:round;stroke-linejoin:bevel;stroke-miterlimit:4;stroke-dasharray:none;stroke-opacity:0;paint-order:stroke markers fill"
       d="m 23.99342,9.82701 15.01819,3.66966 0,22.76235 L 24,43.60153 Z m 2.018183,8.96599 v 3.348845 l 4.226563,-0.173254 v 9.269825 l 2.77344,-1.229768 v -8.152959 l 3,-0.122759 v -2.531257 z"
       id="rect4722-9"
       inkscape:connector-curvature="0"
       sodipodi:nodetypes="cccccccccccccc" />
  </g>
</svg>
